<?xml version="1.0" encoding="UTF-8" standalone="no"?>
<svg
   xmlns:dc="http://purl.org/dc/elements/1.1/"
   xmlns:cc="http://creativecommons.org/ns#"
   xmlns:rdf="http://www.w3.org/1999/02/22-rdf-syntax-ns#"
   xmlns:svg="http://www.w3.org/2000/svg"
   xmlns="http://www.w3.org/2000/svg"
   xmlns:sodipodi="http://sodipodi.sourceforge.net/DTD/sodipodi-0.dtd"
   xmlns:inkscape="http://www.inkscape.org/namespaces/inkscape"
   aria-hidden="true"
   focusable="false"
   data-prefix="fab"
   data-icon="firefox-browser"
   class="svg-inline--fa fa-firefox-browser fa-w-16"
   role="img"
   viewBox="0 0 512 512"
   version="1.1"
   id="svg51"
   sodipodi:docname="firefox.svg"
   inkscape:version="1.0.1 (3bc2e813f5, 2020-09-07, custom)">
  <metadata
     id="metadata57">
    <rdf:RDF>
      <cc:Work
         rdf:about="">
        <dc:format>image/svg+xml</dc:format>
        <dc:type
           rdf:resource="http://purl.org/dc/dcmitype/StillImage" />
        <dc:title></dc:title>
      </cc:Work>
    </rdf:RDF>
  </metadata>
  <defs
     id="defs55" />
  <sodipodi:namedview
     pagecolor="#ffffff"
     bordercolor="#666666"
     borderopacity="1"
     objecttolerance="10"
     gridtolerance="10"
     guidetolerance="10"
     inkscape:pageopacity="0"
     inkscape:pageshadow="2"
     inkscape:window-width="944"
     inkscape:window-height="1030"
     id="namedview53"
     showgrid="false"
     inkscape:zoom="1.7246094"
     inkscape:cx="256"
     inkscape:cy="255.42016"
     inkscape:window-x="1928"
     inkscape:window-y="38"
     inkscape:window-maximized="0"
     inkscape:current-layer="svg51" />
  <path
     fill="currentColor"
     d="M189.37,152.86Zm-58.74-29.37C130.79,123.5,130.71,123.5,130.63,123.49Zm351.42,45.35c-10.61-25.5-32.08-53-48.94-61.73,13.72,26.89,21.67,53.88,24.7,74,0,0,0,.14.05.41-27.58-68.75-74.35-96.47-112.55-156.83-1.93-3.05-3.86-6.11-5.74-9.33-1-1.65-1.86-3.34-2.69-5.05A44.88,44.88,0,0,1,333.24.69a.63.63,0,0,0-.55-.66.9.9,0,0,0-.46,0l-.12.07-.18.1.1-.14c-54.23,31.77-76.72,87.38-82.5,122.78a130,130,0,0,0-48.33,12.33,6.25,6.25,0,0,0-3.09,7.75,6.13,6.13,0,0,0,7.79,3.79l.52-.21a117.84,117.84,0,0,1,42.11-11l1.42-.1c2-.12,4-.2,6-.22A122.61,122.61,0,0,1,291,140c.67.2,1.32.42,2,.63,1.89.57,3.76,1.2,5.62,1.87,1.36.5,2.71,1,4.05,1.58,1.09.44,2.18.88,3.25,1.35q2.52,1.13,5,2.35c.75.37,1.5.74,2.25,1.13q2.4,1.26,4.74,2.63,1.51.87,3,1.8a124.89,124.89,0,0,1,42.66,44.13c-13-9.15-36.35-18.19-58.82-14.28,87.74,43.86,64.18,194.9-57.39,189.2a108.43,108.43,0,0,1-31.74-6.12c-2.42-.91-4.8-1.89-7.16-2.93-1.38-.63-2.76-1.27-4.12-2C174.5,346,149.9,316.92,146.83,281.59c0,0,11.25-41.95,80.62-41.95,7.5,0,28.93-20.92,29.33-27-.09-2-42.54-18.87-59.09-35.18-8.85-8.71-13.05-12.91-16.77-16.06a69.58,69.58,0,0,0-6.31-4.77A113.05,113.05,0,0,1,173.92,97c-25.06,11.41-44.55,29.45-58.71,45.37h-.12c-9.67-12.25-9-52.65-8.43-61.08-.12-.53-7.22,3.68-8.15,4.31a178.54,178.54,0,0,0-23.84,20.43A214,214,0,0,0,51.9,133.36l0,0a.08.08,0,0,1,0,0,205.84,205.84,0,0,0-32.73,73.9c-.06.27-2.33,10.21-4,22.48q-.42,2.87-.78,5.74c-.57,3.69-1,7.71-1.44,14,0,.24,0,.48-.05.72-.18,2.71-.34,5.41-.49,8.12,0,.41,0,.82,0,1.24,0,134.7,109.21,243.89,243.92,243.89,120.64,0,220.82-87.58,240.43-202.62.41-3.12.74-6.26,1.11-9.41,4.85-41.83-.54-85.79-15.82-122.55Z"
     id="path49" />
  <path
     style="fill:#ffffff;stroke-width:0.579841"
     d="m 239.47452,502.64731 c -1.59457,-0.12449 -6.42175,-0.62595 -10.72707,-1.11437 C 128.86614,490.20184 45.735117,417.9703 20.572596,320.65232 c -4.407999,-17.04827 -6.4984,-30.83573 -7.513067,-49.55323 -0.871766,-16.0814 0.898751,-35.57013 5.255305,-57.84708 7.697875,-39.36256 25.467419,-73.68899 53.938246,-104.19553 8.737666,-9.362426 23.895893,-21.98714 31.17037,-25.96062 l 2.85781,-1.560996 0.0334,12.657156 c 0.0368,13.95614 0.66342,22.04004 2.44596,31.55631 1.54545,8.25056 4.71825,16.60275 6.307,16.60275 0.22855,0 4.04724,-3.68008 8.48597,-8.17795 9.99464,-10.12781 20.31488,-18.83684 29.80414,-25.15109 7.5422,-5.01865 19.73203,-11.779086 19.71541,-10.934089 -0.005,0.266803 -0.54087,3.224849 -1.19027,6.573429 -2.31406,11.93227 -2.13686,31.62324 0.39397,43.77803 1.6424,7.88797 1.74856,8.10456 5.27887,10.76998 1.81739,1.37213 7.77983,6.81942 13.24988,12.10507 14.62528,14.13229 21.86997,18.95158 49.60063,32.99525 8.70115,4.40653 15.90768,8.27407 16.01449,8.59453 0.6707,2.01209 -10.73404,14.95533 -18.17691,20.62897 -6.484,4.9427 -7.90146,5.45733 -16.25921,5.90309 -9.50942,0.50718 -15.8676,1.25091 -22.95344,2.68491 -23.55104,4.76615 -42.21721,17.5378 -50.39639,34.4819 l -2.24823,4.65746 0.63699,4.57975 c 3.87131,27.83369 21.78966,54.05005 48.3311,70.71328 10.78076,6.76837 22.13548,11.34704 34.80215,14.03362 9.42824,1.99972 29.35016,2.57336 40.11598,1.15511 23.56982,-3.10498 42.81052,-12.23696 58.19385,-27.61984 13.71703,-13.71664 23.26687,-31.92314 27.36591,-52.17232 1.19961,-5.92611 1.34768,-8.24911 1.33044,-20.87429 -0.0172,-12.55016 -0.17287,-14.91581 -1.33597,-20.29445 -5.59057,-25.85309 -18.44285,-46.07564 -38.36763,-60.36998 -2.39397,-1.71746 -5.85065,-3.90545 -7.68152,-4.86219 -1.83087,-0.95673 -3.32948,-1.90156 -3.33023,-2.09961 -0.003,-0.74734 10.36576,-1.10923 15.68403,-0.54742 13.72474,1.44986 26.16964,5.60406 37.83896,12.63091 1.85245,1.11548 3.49064,1.9056 3.64043,1.75582 0.40649,-0.4065 -7.17171,-11.68702 -11.19773,-16.66835 -4.65994,-5.76565 -15.51115,-16.26755 -21.48598,-20.79431 -16.31453,-12.36051 -35.03261,-20.25475 -56.08245,-23.65241 -9.4159,-1.51983 -27.12809,-1.39625 -36.84203,0.25705 -8.80263,1.4982 -19.40644,4.49474 -26.07077,7.36735 -2.71076,1.16846 -5.67702,2.35518 -6.5917,2.63716 -3.41862,1.0539 -7.32449,-2.16729 -7.32449,-6.04053 0,-2.5833 2.51633,-4.70035 8.53901,-7.1841 11.89811,-4.90676 24.5202,-8.17748 36.6005,-9.48416 3.62487,-0.3921 6.653,-0.99204 6.74247,-1.33585 0.0893,-0.34326 0.86984,-4.01618 1.73446,-8.16204 1.91965,-9.20474 6.59369,-23.55092 10.91979,-33.516464 11.28024,-25.985041 29.24558,-49.983624 49.83694,-66.573544 5.28816,-4.2605297 19.24485,-13.865512 20.10819,-13.83843654 0.18247,0.005723 0.94934,1.96156534 1.70415,4.34631704 2.83289,8.9502415 18.01439,32.5076445 33.06285,51.3041855 4.40593,5.503303 16.81677,19.99757 34.01317,39.723011 24.95196,28.621591 36.87961,45.562601 48.36656,68.695671 2.45882,4.9517 5.21604,10.82958 6.12718,13.06197 1.86611,4.5722 1.9072,4.64859 2.29344,4.26235 0.4686,-0.4686 -3.49099,-18.8595 -5.78649,-26.87616 -3.72147,-12.99669 -11.31249,-32.89969 -16.30745,-42.75676 -0.80159,-1.58186 -1.32144,-3.01211 -1.15522,-3.17832 0.69762,-0.69762 8.65293,5.70179 14.86258,11.95575 27.64333,27.84058 44.0145,67.79215 48.73297,118.9261 1.597,17.30664 0.50419,45.90523 -2.41511,63.20272 -8.78234,52.03722 -37.79425,103.3347 -78.79993,139.33024 -37.5471,32.95953 -82.63698,53.09187 -132.78369,59.28704 -7.47422,0.92337 -37.59795,1.63586 -44.93771,1.06287 z"
     id="path59" />
</svg>
